<svg xmlns="http://www.w3.org/2000/svg" viewBox="0 0 128 128" role="img" aria-labelledby="title desc">
  <title id="title">ContextGraph octopus logo</title>
  <desc id="desc">Stylized octopus head with graph-node eyes and tentacles.</desc>
  <defs>
    <linearGradient id="bg" x1="18%" y1="14%" x2="84%" y2="88%">
      <stop offset="0%" stop-color="#31534a" />
      <stop offset="100%" stop-color="#b4512d" />
    </linearGradient>
    <linearGradient id="accent" x1="0%" y1="0%" x2="100%" y2="100%">
      <stop offset="0%" stop-color="#fff7ea" />
      <stop offset="100%" stop-color="#f2ddbd" />
    </linearGradient>
  </defs>

  <rect width="128" height="128" rx="28" fill="url(#bg)" />

  <path
    d="M64 24c-21.8 0-39.5 16.8-39.5 37.6 0 10.4 4.1 19.9 10.8 26.7 2.8 2.8 7.2 3.2 10.5 1.1l9.3-6
       9 8.4 9-8.4 9.3 6c3.3 2.1 7.8 1.7 10.5-1.1 6.7-6.8 10.8-16.3 10.8-26.7C103.5 40.8 85.8 24 64 24Z"
    fill="url(#accent)"
  />

  <circle cx="47" cy="58" r="9" fill="#31534a" />
  <circle cx="81" cy="58" r="9" fill="#31534a" />
  <circle cx="47" cy="58" r="3.4" fill="#fff7ea" />
  <circle cx="81" cy="58" r="3.4" fill="#fff7ea" />

  <circle cx="64" cy="52" r="3.5" fill="#b4512d" />
  <path d="M56 70c4.8 4.8 11.2 4.8 16 0" fill="none" stroke="#b4512d" stroke-linecap="round" stroke-width="4.5" />

  <path
    d="M32 95c7.2 0 11.1-5.6 14.6-10.5 1.8-2.6 5.7-2.9 8-.6l1.5 1.5c2.1 2.1 2.2 5.4.3 7.7
       -6 7.3-13.1 12.5-24.4 12.5"
    fill="none"
    stroke="#f7f1e4"
    stroke-linecap="round"
    stroke-width="6"
  />
  <path
    d="M48 102c6.6 0 10.6-4.2 14-8.2 1.1-1.3 3-1.4 4.2-.3l1.6 1.5c1.3 1.2 1.5 3.2.4 4.6
       -4.6 5.6-10.2 10.4-20.2 10.4"
    fill="none"
    stroke="#f7f1e4"
    stroke-linecap="round"
    stroke-width="6"
  />
  <path
    d="M96 95c-7.2 0-11.1-5.6-14.6-10.5-1.8-2.6-5.7-2.9-8-.6l-1.5 1.5c-2.1 2.1-2.2 5.4-.3 7.7
       6 7.3 13.1 12.5 24.4 12.5"
    fill="none"
    stroke="#f7f1e4"
    stroke-linecap="round"
    stroke-width="6"
  />
  <path
    d="M80 102c-6.6 0-10.6-4.2-14-8.2-1.1-1.3-3-1.4-4.2-.3L60.2 95c-1.3 1.2-1.5 3.2-.4 4.6
       4.6 5.6 10.2 10.4 20.2 10.4"
    fill="none"
    stroke="#f7f1e4"
    stroke-linecap="round"
    stroke-width="6"
  />
</svg>
